<svg width="162" height="151" viewBox="0 0 162 151" fill="none" xmlns="http://www.w3.org/2000/svg">
<path d="M86.7402 150.447C128.158 150.447 161.734 116.871 161.734 75.4531C161.734 34.035 128.158 0.459045 86.7402 0.459045C45.3221 0.459045 11.7461 34.035 11.7461 75.4531C11.7461 116.871 45.3221 150.447 86.7402 150.447Z" fill="#D2F6EE"/>
<path d="M105.347 73.358H76.3151C75.2679 73.358 74.4189 74.207 74.4189 75.2542V124.739C74.4189 125.786 75.2679 126.635 76.3151 126.635H105.347C106.394 126.635 107.243 125.786 107.243 124.739V75.2542C107.243 74.207 106.394 73.358 105.347 73.358Z" fill="white" stroke="#000577" stroke-width="1.26411"/>
<path d="M80.2211 58.4019H41.0339C39.9866 58.4019 39.1377 59.2509 39.1377 60.2981V109.598C39.1377 110.645 39.9866 111.494 41.0339 111.494H80.2211C81.2683 111.494 82.1173 110.645 82.1173 109.598V60.2981C82.1173 59.2509 81.2683 58.4019 80.2211 58.4019Z" fill="white" stroke="#000577" stroke-width="1.26411"/>
<path d="M133.313 30.5917H30.9206C29.8734 30.5917 29.0244 31.4406 29.0244 32.4878V81.7879C29.0244 82.8351 29.8734 83.6841 30.9206 83.6841H133.313C134.36 83.6841 135.209 82.8351 135.209 81.7879V32.4878C135.209 31.4406 134.36 30.5917 133.313 30.5917Z" fill="white" stroke="#000577" stroke-width="1.26411"/>
<path d="M142.162 58.4019H102.974C101.927 58.4019 101.078 59.2509 101.078 60.2981V109.598C101.078 110.645 101.927 111.494 102.974 111.494H142.162C143.209 111.494 144.058 110.645 144.058 109.598V60.2981C144.058 59.2509 143.209 58.4019 142.162 58.4019Z" fill="white" stroke="#000577" stroke-width="1.26411"/>
<path d="M122.192 72.726C124.828 72.726 126.965 70.5894 126.965 67.9537C126.965 65.318 124.828 63.1813 122.192 63.1813C119.557 63.1813 117.42 65.318 117.42 67.9537C117.42 70.5894 119.557 72.726 122.192 72.726Z" fill="#BB2649"/>
<path d="M122.192 69.3172C123.321 69.3172 124.237 68.4015 124.237 67.2719C124.237 66.1423 123.321 65.2266 122.192 65.2266C121.062 65.2266 120.146 66.1423 120.146 67.2719C120.146 68.4015 121.062 69.3172 122.192 69.3172Z" fill="#FCEDEC"/>
<mask id="mask0_984_1471" style="mask-type:alpha" maskUnits="userSpaceOnUse" x="117" y="63" width="10" height="10">
<path d="M122.192 72.726C124.828 72.726 126.965 70.5894 126.965 67.9537C126.965 65.318 124.828 63.1813 122.192 63.1813C119.557 63.1813 117.42 65.318 117.42 67.9537C117.42 70.5894 119.557 72.726 122.192 72.726Z" fill="#E24A42"/>
</mask>
<g mask="url(#mask0_984_1471)">
<path d="M122.192 75.4531C124.075 75.4531 125.601 73.9269 125.601 72.0443C125.601 70.1616 124.075 68.6354 122.192 68.6354C120.309 68.6354 118.783 70.1616 118.783 72.0443C118.783 73.9269 120.309 75.4531 122.192 75.4531Z" fill="#FCEDEC"/>
</g>
<path d="M89.467 35.9108H62.8782C62.1251 35.9108 61.5146 36.5212 61.5146 37.2743V50.9096C61.5146 51.6626 62.1251 52.2731 62.8782 52.2731H89.467C90.22 52.2731 90.8305 51.6626 90.8305 50.9096V37.2743C90.8305 36.5212 90.22 35.9108 89.467 35.9108Z" fill="#BB2649"/>
<path d="M62.3574 36.9739L90.3095 51.9728" stroke="#D2F6EE" stroke-width="0.681764"/>
<path d="M89.9883 36.9739L62.0359 51.9728" stroke="#D2F6EE" stroke-width="0.681764"/>
<path d="M52.6046 59.7725H39.6794C39.3134 59.7725 39.0166 60.0693 39.0166 60.4353V67.0636C39.0166 67.4297 39.3134 67.7265 39.6794 67.7265H52.6046C52.9706 67.7265 53.2674 67.4297 53.2674 67.0636V60.4353C53.2674 60.0693 52.9706 59.7725 52.6046 59.7725Z" fill="#BB2649"/>
<path d="M39.4268 60.2893L53.0147 67.5804" stroke="#D2F6EE" stroke-width="0.331413"/>
<path d="M52.8574 60.2893L39.2695 67.5804" stroke="#D2F6EE" stroke-width="0.331413"/>
<path d="M52.6046 70.9078H39.6794C39.3134 70.9078 39.0166 71.2045 39.0166 71.5706V78.1989C39.0166 78.565 39.3134 78.8617 39.6794 78.8617H52.6046C52.9706 78.8617 53.2674 78.565 53.2674 78.1989V71.5706C53.2674 71.2045 52.9706 70.9078 52.6046 70.9078Z" fill="#BB2649"/>
<path d="M39.4268 71.4246L53.0147 78.716" stroke="#D2F6EE" stroke-width="0.331413"/>
<path d="M52.8574 71.4244L39.2695 78.7155" stroke="#D2F6EE" stroke-width="0.331413"/>
<path d="M135.827 80.9072H109.239C108.485 80.9072 107.875 81.5177 107.875 82.2708V95.906C107.875 96.6591 108.485 97.2696 109.239 97.2696H135.827C136.58 97.2696 137.191 96.6591 137.191 95.906V82.2708C137.191 81.5177 136.58 80.9072 135.827 80.9072Z" fill="#BB2649"/>
<path d="M108.718 81.9701L136.67 96.9689" stroke="#D2F6EE" stroke-width="0.681764"/>
<path d="M136.348 81.9704L108.395 96.9692" stroke="#D2F6EE" stroke-width="0.681764"/>
<path d="M126.964 35.9108H100.375C99.6222 35.9108 99.0117 36.5212 99.0117 37.2743V50.9096C99.0117 51.6626 99.6222 52.2731 100.375 52.2731H126.964C127.717 52.2731 128.328 51.6626 128.328 50.9096V37.2743C128.328 36.5212 127.717 35.9108 126.964 35.9108Z" fill="#BB2649"/>
<path d="M99.8545 36.9739L127.807 51.9728" stroke="#D2F6EE" stroke-width="0.681764"/>
<path d="M127.485 36.9739L99.533 51.9728" stroke="#D2F6EE" stroke-width="0.681764"/>
<path d="M89.1261 55.0002H61.8555C61.6673 55.0002 61.5146 55.1528 61.5146 55.3411C61.5146 55.5293 61.6673 55.6819 61.8555 55.6819H89.1261C89.3144 55.6819 89.467 55.5293 89.467 55.3411C89.467 55.1528 89.3144 55.0002 89.1261 55.0002Z" fill="#D2F6EE"/>
<path d="M136.168 99.9966H108.898C108.709 99.9966 108.557 100.149 108.557 100.338C108.557 100.526 108.709 100.678 108.898 100.678H136.168C136.356 100.678 136.509 100.526 136.509 100.338C136.509 100.149 136.356 99.9966 136.168 99.9966Z" fill="#D2F6EE"/>
<path d="M89.1261 57.7272H61.8555C61.6673 57.7272 61.5146 57.8799 61.5146 58.0681C61.5146 58.2564 61.6673 58.409 61.8555 58.409H89.1261C89.3144 58.409 89.467 58.2564 89.467 58.0681C89.467 57.8799 89.3144 57.7272 89.1261 57.7272Z" fill="#D2F6EE"/>
<path d="M136.168 102.724H108.898C108.709 102.724 108.557 102.876 108.557 103.065C108.557 103.253 108.709 103.405 108.898 103.405H136.168C136.356 103.405 136.509 103.253 136.509 103.065C136.509 102.876 136.356 102.724 136.168 102.724Z" fill="#D2F6EE"/>
<path d="M89.1261 60.4543H61.8555C61.6673 60.4543 61.5146 60.6069 61.5146 60.7952C61.5146 60.9834 61.6673 61.136 61.8555 61.136H89.1261C89.3144 61.136 89.467 60.9834 89.467 60.7952C89.467 60.6069 89.3144 60.4543 89.1261 60.4543Z" fill="#D2F6EE"/>
<path d="M136.168 105.451H108.898C108.709 105.451 108.557 105.603 108.557 105.792C108.557 105.98 108.709 106.133 108.898 106.133H136.168C136.356 106.133 136.509 105.98 136.509 105.792C136.509 105.603 136.356 105.451 136.168 105.451Z" fill="#D2F6EE"/>
<mask id="mask1_984_1471" style="mask-type:alpha" maskUnits="userSpaceOnUse" x="56" y="67" width="41" height="16">
<path d="M96.2845 67.272H56.7422V82.9525H96.2845V67.272Z" fill="#C4C4C4"/>
</mask>
<g mask="url(#mask1_984_1471)">
<path d="M89.467 68.6355H62.8782C62.1251 68.6355 61.5146 69.246 61.5146 69.999V83.6343C61.5146 84.3874 62.1251 84.9978 62.8782 84.9978H89.467C90.22 84.9978 90.8305 84.3874 90.8305 83.6343V69.999C90.8305 69.246 90.22 68.6355 89.467 68.6355Z" fill="#BB2649"/>
<path d="M62.3574 69.6984L90.3095 84.6972" stroke="#D2F6EE" stroke-width="0.681764"/>
<path d="M89.9873 69.6987L62.035 84.6975" stroke="#D2F6EE" stroke-width="0.681764"/>
</g>
<path d="M52.311 48.8643H39.3575C39.1692 48.8643 39.0166 49.0169 39.0166 49.2052C39.0166 49.3935 39.1692 49.5461 39.3575 49.5461H52.311C52.4993 49.5461 52.6519 49.3935 52.6519 49.2052C52.6519 49.0169 52.4993 48.8643 52.311 48.8643Z" fill="#D2F6EE"/>
<path d="M136.168 74.7714H108.898C108.709 74.7714 108.557 74.924 108.557 75.1122C108.557 75.3005 108.709 75.4531 108.898 75.4531H136.168C136.356 75.4531 136.509 75.3005 136.509 75.1122C136.509 74.924 136.356 74.7714 136.168 74.7714Z" fill="#D2F6EE"/>
<path d="M52.311 51.5914H39.3575C39.1692 51.5914 39.0166 51.744 39.0166 51.9323C39.0166 52.1205 39.1692 52.2731 39.3575 52.2731H52.311C52.4993 52.2731 52.6519 52.1205 52.6519 51.9323C52.6519 51.744 52.4993 51.5914 52.311 51.5914Z" fill="#D2F6EE"/>
<path d="M136.168 77.4984H108.898C108.709 77.4984 108.557 77.651 108.557 77.8393C108.557 78.0276 108.709 78.1802 108.898 78.1802H136.168C136.356 78.1802 136.509 78.0276 136.509 77.8393C136.509 77.651 136.356 77.4984 136.168 77.4984Z" fill="#D2F6EE"/>
<path d="M52.311 54.3184H39.3575C39.1692 54.3184 39.0166 54.471 39.0166 54.6593C39.0166 54.8476 39.1692 55.0002 39.3575 55.0002H52.311C52.4993 55.0002 52.6519 54.8476 52.6519 54.6593C52.6519 54.471 52.4993 54.3184 52.311 54.3184Z" fill="#D2F6EE"/>
<mask id="mask2_984_1471" style="mask-type:alpha" maskUnits="userSpaceOnUse" x="117" y="63" width="10" height="10">
<path d="M122.192 72.726C124.828 72.726 126.965 70.5894 126.965 67.9537C126.965 65.318 124.828 63.1813 122.192 63.1813C119.557 63.1813 117.42 65.318 117.42 67.9537C117.42 70.5894 119.557 72.726 122.192 72.726Z" fill="#E24A42"/>
</mask>
<g mask="url(#mask2_984_1471)">
<path d="M122.192 75.4531C124.075 75.4531 125.601 73.9269 125.601 72.0443C125.601 70.1616 124.075 68.6354 122.192 68.6354C120.309 68.6354 118.783 70.1616 118.783 72.0443C118.783 73.9269 120.309 75.4531 122.192 75.4531Z" fill="#FCEDEC"/>
</g>
<path d="M47.5388 96.5878C49.6097 96.5878 51.2885 94.909 51.2885 92.8381C51.2885 90.7672 49.6097 89.0884 47.5388 89.0884C45.4679 89.0884 43.7891 90.7672 43.7891 92.8381C43.7891 94.909 45.4679 96.5878 47.5388 96.5878Z" fill="#000577"/>
<path d="M56.402 96.5878C58.473 96.5878 60.1518 94.909 60.1518 92.8381C60.1518 90.7672 58.473 89.0884 56.402 89.0884C54.3311 89.0884 52.6523 90.7672 52.6523 92.8381C52.6523 94.909 54.3311 96.5878 56.402 96.5878Z" fill="#BB2649"/>
<path d="M65.2644 96.5878C67.3353 96.5878 69.0141 94.909 69.0141 92.8381C69.0141 90.7672 67.3353 89.0884 65.2644 89.0884C63.1934 89.0884 61.5146 90.7672 61.5146 92.8381C61.5146 94.909 63.1934 96.5878 65.2644 96.5878Z" fill="#FFD3D3"/>
<path d="M74.1276 96.5878C76.1985 96.5878 77.8773 94.909 77.8773 92.8381C77.8773 90.7672 76.1985 89.0884 74.1276 89.0884C72.0567 89.0884 70.3779 90.7672 70.3779 92.8381C70.3779 94.909 72.0567 96.5878 74.1276 96.5878Z" fill="#FCEDEC"/>
<path d="M47.5388 106.133C49.6097 106.133 51.2885 104.454 51.2885 102.383C51.2885 100.312 49.6097 98.6331 47.5388 98.6331C45.4679 98.6331 43.7891 100.312 43.7891 102.383C43.7891 104.454 45.4679 106.133 47.5388 106.133Z" fill="black"/>
<path d="M56.402 106.133C58.473 106.133 60.1518 104.454 60.1518 102.383C60.1518 100.312 58.473 98.6331 56.402 98.6331C54.3311 98.6331 52.6523 100.312 52.6523 102.383C52.6523 104.454 54.3311 106.133 56.402 106.133Z" fill="#C4C4C4"/>
<path d="M65.2644 106.133C67.3353 106.133 69.0141 104.454 69.0141 102.383C69.0141 100.312 67.3353 98.6331 65.2644 98.6331C63.1934 98.6331 61.5146 100.312 61.5146 102.383C61.5146 104.454 63.1934 106.133 65.2644 106.133Z" fill="#DADADA"/>
<path d="M74.1276 105.792C76.0102 105.792 77.5364 104.265 77.5364 102.383C77.5364 100.5 76.0102 98.974 74.1276 98.974C72.2449 98.974 70.7188 100.5 70.7188 102.383C70.7188 104.265 72.2449 105.792 74.1276 105.792Z" fill="white" stroke="#E6E6E6" stroke-width="0.681764"/>
<path d="M93.0007 97.2696V90.482H91.2751V93.2745H88.4628V90.482H86.7373V97.2696H88.4628V94.6325H91.2751V97.2696H93.0007ZM96.7251 97.2696V90.4724H93.7486V91.8591H94.9996V97.2696H96.7251Z" fill="#BB2649"/>
<path d="M91.6671 106.814V101.284H90.4194V103.592H87.9153V101.284H86.667V106.814H87.9153V104.634H90.4194V106.814H91.6671ZM94.6464 101.229C93.8801 101.229 93.1451 101.537 92.4743 102.051L92.9556 102.983C93.4458 102.557 94.0062 102.288 94.4643 102.288C94.9225 102.288 95.1911 102.493 95.1911 102.841C95.1911 103.11 94.9545 103.497 94.615 103.844L92.6161 105.961V106.814H96.6842V105.772H94.2353L95.4597 104.492C96.0603 103.876 96.4946 103.251 96.4946 102.659C96.4946 101.79 95.7283 101.229 94.6464 101.229Z" fill="#FB8079"/>
<path d="M90.3232 114.314V110.042H89.6032V111.897H87.3398V110.042H86.6191V114.314H87.3398V112.544H89.6032V114.314H90.3232ZM92.4837 111.818L93.704 110.5V110.049H91.1045V110.689H92.813L91.7024 111.885V112.306H92.2941C92.8621 112.306 93.1975 112.544 93.1975 113.008C93.1975 113.447 92.8682 113.74 92.3003 113.74C91.9096 113.74 91.5135 113.581 91.2081 113.294L90.9095 113.881C91.2756 114.161 91.8244 114.344 92.3494 114.344C93.3011 114.344 93.9052 113.789 93.9052 112.99C93.9052 112.318 93.417 111.904 92.7032 111.842L92.4837 111.818Z" fill="#FCB4B0"/>
<path d="M86.6191 117.542V121.813H87.3398V120.525H88.3222C89.396 120.525 90.0123 119.964 90.0123 119C90.0123 118.072 89.396 117.542 88.3222 117.542H86.6191ZM87.3398 118.189H88.2915C88.9501 118.189 89.3223 118.457 89.3223 119.019C89.3223 119.598 88.9501 119.879 88.2915 119.879H87.3398V118.189Z" fill="#BBAEAD"/>
<path d="M45.8348 46.1372C48.4705 46.1372 50.6072 44.0006 50.6072 41.3649C50.6072 38.7292 48.4705 36.5925 45.8348 36.5925C43.1992 36.5925 41.0625 38.7292 41.0625 41.3649C41.0625 44.0006 43.1992 46.1372 45.8348 46.1372Z" fill="#BB2649"/>
<path d="M45.8344 42.7284C46.9639 42.7284 47.8796 41.8127 47.8796 40.6831C47.8796 39.5535 46.9639 38.6378 45.8344 38.6378C44.7048 38.6378 43.7891 39.5535 43.7891 40.6831C43.7891 41.8127 44.7048 42.7284 45.8344 42.7284Z" fill="#FCEDEC"/>
<mask id="mask3_984_1471" style="mask-type:alpha" maskUnits="userSpaceOnUse" x="41" y="36" width="10" height="11">
<path d="M45.8348 46.1372C48.4705 46.1372 50.6072 44.0006 50.6072 41.3649C50.6072 38.7292 48.4705 36.5925 45.8348 36.5925C43.1992 36.5925 41.0625 38.7292 41.0625 41.3649C41.0625 44.0006 43.1992 46.1372 45.8348 46.1372Z" fill="#E24A42"/>
</mask>
<g mask="url(#mask3_984_1471)">
<path d="M45.8346 48.8643C47.7172 48.8643 49.2434 47.3381 49.2434 45.4555C49.2434 43.5728 47.7172 42.0466 45.8346 42.0466C43.952 42.0466 42.4258 43.5728 42.4258 45.4555C42.4258 47.3381 43.952 48.8643 45.8346 48.8643Z" fill="#FCEDEC"/>
</g>
<mask id="mask4_984_1471" style="mask-type:alpha" maskUnits="userSpaceOnUse" x="41" y="36" width="10" height="11">
<path d="M45.8348 46.1372C48.4705 46.1372 50.6072 44.0006 50.6072 41.3649C50.6072 38.7292 48.4705 36.5925 45.8348 36.5925C43.1992 36.5925 41.0625 38.7292 41.0625 41.3649C41.0625 44.0006 43.1992 46.1372 45.8348 46.1372Z" fill="#E24A42"/>
</mask>
<g mask="url(#mask4_984_1471)">
<path d="M45.8346 48.8643C47.7172 48.8643 49.2434 47.3381 49.2434 45.4555C49.2434 43.5728 47.7172 42.0466 45.8346 42.0466C43.952 42.0466 42.4258 43.5728 42.4258 45.4555C42.4258 47.3381 43.952 48.8643 45.8346 48.8643Z" fill="#FCEDEC"/>
</g>
<path d="M1.35598 138.402C5.10815 134.197 15.0974 122.851 15.3807 120.968C15.8195 118.051 17.6994 107.92 20.3675 103.323C20.4962 103.101 20.5731 102.856 20.6087 102.602C20.78 101.382 21.4359 99.334 23.0547 98.0836C23.4504 97.7782 23.7527 97.3466 23.997 96.9123C25.2965 94.6005 30.7372 90.4629 33.6526 88.0494C33.8749 87.8653 34.0366 87.6281 34.1271 87.3554C36.6761 79.6685 42.0139 64.9849 44.0416 64.6125C46.3948 64.1804 48.2801 65.2355 42.157 85.6189C44.3582 87.0909 48.935 90.6865 49.6322 93.2922C50.3295 95.8986 50.2382 98.6706 50.1053 99.7314C52.0908 94.6966 57.376 95.7677 56.3017 99.5371C55.2274 103.307 54.9105 105.235 53.0882 107.766C51.2659 110.297 46.802 116.189 42.8603 120.917C38.9184 125.647 30.8239 130.03 26.6771 133.992L23.8487 143.316C23.6155 144.085 22.9492 144.65 22.1455 144.748C14.0998 145.729 7.61613 145.5 1.61846 141.263C0.673421 140.596 0.587209 139.264 1.35598 138.402Z" fill="white"/>
<path d="M50.1053 99.7314C52.0908 94.6966 57.376 95.7677 56.3017 99.5371C55.2274 103.307 54.9105 105.235 53.0882 107.766C51.2659 110.297 46.802 116.189 42.8603 120.917C38.9184 125.647 30.8239 130.03 26.6771 133.992L23.8487 143.316C23.6155 144.085 22.9492 144.65 22.1455 144.748C14.0998 145.729 7.61613 145.5 1.61846 141.263C0.673421 140.596 0.587209 139.264 1.35598 138.402C5.10815 134.197 15.0974 122.851 15.3807 120.968C15.8195 118.051 17.6994 107.92 20.3675 103.323C20.4962 103.101 20.5731 102.856 20.6087 102.602C20.78 101.382 21.4359 99.334 23.0547 98.0836C23.4504 97.7782 23.7527 97.3466 23.997 96.9123C25.2965 94.6005 30.7372 90.4629 33.6526 88.0494C33.8749 87.8653 34.0366 87.6281 34.1271 87.3554C36.6761 79.6685 42.0139 64.9849 44.0416 64.6125C46.3948 64.1804 48.2801 65.2355 42.157 85.6189M50.1053 99.7314C50.2382 98.6706 50.3295 95.8986 49.6322 93.2922C48.935 90.6865 44.3582 87.0909 42.157 85.6189M50.1053 99.7314C49.8828 100.296 49.6293 100.843 49.3518 101.366M42.157 85.6189C41.5645 87.5913 40.897 89.745 40.1477 92.0957M40.1477 92.0957C41.1824 92.849 43.5551 95.1786 44.7688 98.4688C45.2798 99.8542 45.9917 100.659 46.7211 101.095M40.1477 92.0957C39.6793 93.7837 39.5018 96.0574 39.5884 98.3113M49.3518 101.366C47.1539 105.507 43.4485 108.157 41.6473 106.264C40.4333 104.988 39.7175 101.67 39.5884 98.3113M49.3518 101.366C48.7601 101.6 47.7241 101.695 46.7211 101.095M46.7211 101.095C47.1497 101.919 47.6463 103.619 46.2043 103.834C45.1852 103.986 44.0842 103.832 43.1195 103.204M39.5884 98.3113C39.7687 98.2922 40.3504 98.7702 41.236 100.834C41.7171 101.955 42.378 102.72 43.1195 103.204M43.1195 103.204C42.8665 103.815 42.0064 104.804 40.5899 103.869" stroke="#000577" stroke-width="1.09032" stroke-linecap="round" stroke-linejoin="round"/>
</svg>
