<svg width="103" height="96" viewBox="0 0 103 96" fill="none" xmlns="http://www.w3.org/2000/svg">
<path d="M54.5752 95.9421C80.9882 95.9421 102.4 74.5302 102.4 48.1177C102.4 21.7049 80.9882 0.29303 54.5752 0.29303C28.1623 0.29303 6.75049 21.7049 6.75049 48.1177C6.75049 74.5302 28.1623 95.9421 54.5752 95.9421Z" fill="#D2F6EE"/>
<path d="M14.6669 37.6256H1.27533C0.923139 37.6256 0.637634 37.9111 0.637634 38.2633V50.3795C0.637634 50.7317 0.923139 51.0172 1.27533 51.0172H14.6669C15.0191 51.0172 15.3046 50.7317 15.3046 50.3795V38.2633C15.3046 37.9111 15.0191 37.6256 14.6669 37.6256Z" fill="white"/>
<path d="M63.7693 23.5964H44.6385C43.9342 23.5964 43.3632 24.1674 43.3632 24.8718V61.2203C43.3632 61.9247 43.9342 62.4957 44.6385 62.4957H63.7693C64.4737 62.4957 65.0447 61.9247 65.0447 61.2203V24.8718C65.0447 24.1674 64.4737 23.5964 63.7693 23.5964Z" fill="white"/>
<path d="M66.3201 31.2487H42.7255C42.0211 31.2487 41.4501 31.8197 41.4501 32.524V53.5679C41.4501 54.2723 42.0211 54.8433 42.7255 54.8433H66.3201C67.0245 54.8433 67.5955 54.2723 67.5955 53.5679V32.524C67.5955 31.8197 67.0245 31.2487 66.3201 31.2487Z" fill="white"/>
<path d="M48.221 44.2348L48.2349 44.253L48.2497 44.2704L53.1626 49.899C53.6982 50.5129 54.6377 50.5129 55.1733 49.899L60.0863 44.2704L60.1011 44.253L60.115 44.2348C61.7862 42.0148 61.3545 39.6491 59.8976 38.4087C59.1815 37.799 58.2306 37.4813 57.2316 37.6205C56.2285 37.7603 55.2446 38.3504 54.4329 39.4303C54.3877 39.4904 54.2956 39.5433 54.1678 39.5433C54.0404 39.5433 53.9482 39.4904 53.903 39.4303C53.0913 38.3504 52.1074 37.7603 51.1043 37.6205C50.1053 37.4813 49.1544 37.799 48.4383 38.4087C46.9814 39.6491 46.5497 42.0148 48.221 44.2348ZM44.5894 36.9496C44.5894 35.8915 45.4471 35.0338 46.5054 35.0338H61.831C62.8888 35.0338 63.7466 35.8915 63.7466 36.9496V49.7211C63.7466 50.7789 62.8888 51.6367 61.831 51.6367H46.5049C45.4471 51.6367 44.5894 50.7789 44.5894 49.7211V36.9496Z" fill="#BB2649" stroke="#BB2649" stroke-width="1.27713"/>
<path d="M70.7706 40.781C70.7706 40.4283 70.4842 40.1424 70.1316 40.1424C69.7789 40.1424 69.4933 40.4283 69.4933 40.781H70.7706ZM69.4933 45.2508C69.4933 45.6035 69.7789 45.8895 70.1316 45.8895C70.4842 45.8895 70.7706 45.6035 70.7706 45.2508H69.4933ZM43.3121 31.6016H65.023V30.3244H43.3121V31.6016ZM66.9393 33.4375V53.2332H68.216V33.4375H66.9393ZM65.023 55.0688H43.3121V56.3462H65.023V55.0688ZM41.3964 53.2332V33.4375H40.1193V53.2332H41.3964ZM43.3121 55.0688C42.2348 55.0688 41.3964 54.2279 41.3964 53.2332H40.1193C40.1193 54.9714 41.568 56.3462 43.3121 56.3462V55.0688ZM66.9393 53.2332C66.9393 54.2279 66.1007 55.0688 65.023 55.0688V56.3462C66.7678 56.3462 68.216 54.9714 68.216 53.2332H66.9393ZM65.023 31.6016C66.1007 31.6016 66.9393 32.4425 66.9393 33.4375H68.216C68.216 31.6992 66.7678 30.3244 65.023 30.3244V31.6016ZM43.3121 30.3244C41.568 30.3244 40.1193 31.6992 40.1193 33.4375H41.3964C41.3964 32.4425 42.2348 31.6016 43.3121 31.6016V30.3244ZM64.3847 55.7075V60.6565H65.662V55.7075H64.3847ZM62.469 62.4921H45.8665V63.7694H62.469V62.4921ZM43.9505 60.6565V55.7075H42.6735V60.6565H43.9505ZM45.8665 62.4921C44.7891 62.4921 43.9505 61.6512 43.9505 60.6565H42.6735C42.6735 62.3947 44.1222 63.7694 45.8665 63.7694V62.4921ZM64.3847 60.6565C64.3847 61.6512 63.5464 62.4921 62.469 62.4921V63.7694C64.2132 63.7694 65.662 62.3947 65.662 60.6565H64.3847ZM65.662 30.963V26.0141H64.3847V30.963H65.662ZM62.469 22.9011H45.8665V24.1782H62.469V22.9011ZM42.6735 26.0141V30.963H43.9505V26.0141H42.6735ZM45.8665 22.9011C44.1222 22.9011 42.6735 24.2759 42.6735 26.0141H43.9505C43.9505 25.0192 44.7891 24.1782 45.8665 24.1782V22.9011ZM65.662 26.0141C65.662 24.2759 64.2132 22.9011 62.469 22.9011V24.1782C63.5464 24.1782 64.3847 25.0192 64.3847 26.0141H65.662ZM69.4933 40.781V45.2508H70.7706V40.781H69.4933Z" fill="#000577"/>
<path d="M34.5446 35.5094H21.222C19.6612 35.5094 18.396 36.7746 18.396 38.3354V49.6394C18.396 51.2002 19.6612 52.4654 21.222 52.4654H34.5446C36.1053 52.4654 37.3706 51.2002 37.3706 49.6394V38.3354C37.3706 36.7746 36.1053 35.5094 34.5446 35.5094Z" fill="#BB2649"/>
<path d="M87.355 35.8724H75.3766C74.1739 35.8724 73.1989 36.8474 73.1989 38.0502V48.2133C73.1989 49.4161 74.1739 50.3911 75.3766 50.3911H87.355C88.5577 50.3911 89.5327 49.4161 89.5327 48.2133V38.0502C89.5327 36.8474 88.5577 35.8724 87.355 35.8724Z" fill="#BB2649" stroke="#BB2649" stroke-width="0.725937"/>
<path fill-rule="evenodd" clip-rule="evenodd" d="M33.5662 45.206C33.0512 45.3808 32.4994 45.476 31.9252 45.476C29.1108 45.476 26.8293 43.1945 26.8293 40.3801C26.8293 39.806 26.9243 39.254 27.0993 38.7391C25.0901 39.4222 23.6444 41.3247 23.6444 43.565C23.6444 46.3795 25.9259 48.6608 28.7403 48.6608C30.9806 48.6608 32.8832 47.2152 33.5662 45.206Z" fill="white"/>
<path d="M13.6291 37.5193H2.5742C1.46411 37.5193 0.564209 38.4192 0.564209 39.5293V48.9092C0.564209 50.0193 1.46411 50.9192 2.5742 50.9192H13.6291C14.7392 50.9192 15.6391 50.0193 15.6391 48.9092V39.5293C15.6391 38.4192 14.7392 37.5193 13.6291 37.5193Z" stroke="#BB2649" stroke-width="0.669992"/>
<path fill-rule="evenodd" clip-rule="evenodd" d="M9.73395 39.732C9.75742 39.5297 9.56433 39.3709 9.36951 39.4302C9.01935 39.5365 8.66314 39.7615 8.42649 40.0383C8.19998 40.3002 7.99573 40.686 7.9523 41.0872C7.93171 41.277 8.10433 41.4291 8.29156 41.3918C8.67334 41.3159 9.03313 41.0751 9.2736 40.7839C9.51063 40.497 9.68855 40.124 9.73395 39.732ZM11.3802 45.7825C11.4997 45.8525 11.551 45.9981 11.5018 46.1273C11.4106 46.3673 11.2404 46.7547 10.97 47.1499C10.5996 47.6912 10.215 48.2307 9.60929 48.242C9.01413 48.2529 8.82275 47.889 8.14227 47.889C7.46204 47.889 7.24937 48.2307 6.68597 48.2529C6.10129 48.2751 5.65608 47.6672 5.28249 47.1277C4.51918 46.0243 3.93584 44.0096 4.71911 42.6494C5.10823 41.974 5.80365 41.5463 6.55837 41.5353C7.13255 41.5243 7.6744 41.9216 8.02545 41.9216C8.37618 41.9216 9.03472 41.4439 9.727 41.5141C9.98202 41.5247 10.6425 41.6072 11.1534 42.1479C11.2648 42.2657 11.2526 42.454 11.1278 42.5576C10.8411 42.7953 10.385 43.2971 10.3922 44.0869C10.4014 45.0813 11.0415 45.5851 11.3802 45.7825Z" fill="#BB2649"/>
<path d="M57.0991 89.3763H86.3437" stroke="#BB2649" stroke-width="1.34977" stroke-linecap="round" stroke-linejoin="round"/>
<path d="M91.4994 46.4986C92.0447 45.956 92.9285 45.956 93.4731 46.4986L98.6046 51.6106C99.1492 52.1532 99.1492 53.0332 98.6046 53.5762L96.0928 56.0783L89.9747 49.9837C89.4295 49.4407 89.4295 48.5607 89.9747 48.0177L91.4994 46.4986Z" fill="#BB2649"/>
<path d="M57.8359 88.7756C58.492 88.4485 58.632 87.5736 58.1107 87.0583C57.5933 86.5462 56.7268 86.6903 56.4025 87.3414C55.9451 88.2597 56.9177 89.2328 57.8359 88.7756Z" fill="#000577"/>
<path d="M60.6628 76.9018L56.8368 85.9538M60.6628 76.9018L62.7597 78.9909M60.6628 76.9018L88.6227 49.0498M56.8368 85.9538L56.4025 86.9818C55.916 88.1322 57.0781 89.2902 58.2333 88.8056L59.2646 88.3733M56.8368 85.9538L59.2646 88.3733M68.3517 84.5611L59.2646 88.3733M68.3517 84.5611L66.255 82.4727M68.3517 84.5611L96.3114 56.7092M66.255 82.4727L62.7597 78.9909M66.255 82.4727L94.2147 54.6201M62.7597 78.9909L90.7195 51.1385M88.6227 49.0498L90.2603 47.3903C91.3521 46.3025 93.1223 46.3025 94.2147 47.3903L97.949 51.1106C99.0407 52.1984 99.0407 53.9619 97.949 55.0496L96.3114 56.7092M88.6227 49.0498L90.7195 51.1385M96.3114 56.7092L94.2147 54.6201M90.7195 51.1385L94.2147 54.6201" stroke="#000577" stroke-width="1.34977" stroke-linecap="round" stroke-linejoin="round"/>
<path d="M78.7596 46.8812C78.7456 46.9629 78.7794 47.0455 78.847 47.0938C78.914 47.1425 79.0026 47.1485 79.0759 47.1098L81.5266 45.809L83.9772 47.1098C84.0506 47.1485 84.1398 47.1425 84.2068 47.0938C84.2738 47.0455 84.3076 46.9629 84.2935 46.8812L83.8255 44.1238L85.8093 42.1715C85.868 42.1136 85.889 42.0275 85.8635 41.949C85.838 41.8706 85.7698 41.8135 85.6882 41.8015L82.948 41.3995L81.7217 38.892C81.6854 38.8174 81.6095 38.7701 81.5266 38.7701C81.4437 38.7701 81.3678 38.8174 81.3314 38.892L80.1052 41.3995L77.3644 41.8015C77.2834 41.8135 77.2151 41.8706 77.1896 41.949C77.1641 42.0275 77.1852 42.1136 77.2438 42.1715L79.2277 44.1238L78.7596 46.8812Z" fill="white" stroke="white" stroke-width="0.43477" stroke-linecap="round" stroke-linejoin="round"/>
</svg>
