<svg width="150" height="150" viewBox="0 0 150 150" fill="none" xmlns="http://www.w3.org/2000/svg">
<path d="M75 150C116.421 150 150 116.421 150 75C150 33.5786 116.421 0 75 0C33.5786 0 0 33.5786 0 75C0 116.421 33.5786 150 75 150Z" fill="#D2F6EE"/>
<rect x="19" y="32" width="112" height="74" rx="1" fill="white"/>
<rect width="47" height="19" rx="1" transform="matrix(1 0 0 -1 77 125)" fill="white"/>
<rect width="33" height="31" rx="1" transform="matrix(1 0 0 -1 45 137)" fill="white"/>
<path d="M117.427 42.3651H69.0892C67.7871 42.3651 66.7314 43.4207 66.7314 44.723V70.0711H75.574C77.5983 70.1768 78.3333 70.7154 78.5215 73.0186V95.419H117.427C118.73 95.419 119.785 94.3636 119.785 93.0613V44.723C119.785 43.4207 118.73 42.3651 117.427 42.3651Z" fill="#BB2649"/>
<path d="M46.6885 85.9874C46.6885 84.6852 47.7442 83.629 49.0465 83.629H73.8051C75.1073 83.629 76.1628 84.6852 76.1628 85.9874V117.819C76.1628 119.122 75.1073 120.177 73.8051 120.177H49.0465C47.7442 120.177 46.6885 119.122 46.6885 117.819V85.9874Z" fill="#BB2649"/>
<path d="M106 103.358C106 102.055 107.056 101 108.358 101H118.969C120.271 101 121.327 102.055 121.327 103.358V118.684C121.327 119.987 120.271 121.043 118.969 121.043H108.358C107.056 121.043 106 119.987 106 118.684V103.358Z" fill="#BB2649"/>
<path d="M21.3414 24.6804H128.628C129.93 24.6804 130.986 25.7361 130.986 27.0384V32.9333H18.9834V27.0384C18.9834 25.7361 20.0391 24.6804 21.3414 24.6804Z" fill="#BB2649"/>
<path d="M117.427 42.3651H69.0892C67.7871 42.3651 66.7314 43.4207 66.7314 44.723V70.0711H75.574C77.5983 70.1768 78.3333 70.7154 78.5215 73.0186V95.419H117.427C118.73 95.419 119.785 94.3636 119.785 93.0613V44.723C119.785 43.4207 118.73 42.3651 117.427 42.3651Z" stroke="#BB2649" stroke-width="1.17898"/>
<path d="M46.6885 85.9874C46.6885 84.6852 47.7442 83.629 49.0465 83.629H73.8051C75.1073 83.629 76.1628 84.6852 76.1628 85.9874V117.819C76.1628 119.122 75.1073 120.177 73.8051 120.177H49.0465C47.7442 120.177 46.6885 119.122 46.6885 117.819V85.9874Z" stroke="#BB2649" stroke-width="1.17898"/>
<path d="M105.638 103.672C105.638 102.369 106.694 101.314 107.996 101.314H118.607C119.909 101.314 120.965 102.369 120.965 103.672V118.998C120.965 120.301 119.909 121.357 118.607 121.357H107.996C106.694 121.357 105.638 120.301 105.638 118.998V103.672Z" stroke="#BB2649" stroke-width="1.17898"/>
<path d="M21.3414 24.6804H128.628C129.93 24.6804 130.986 25.7361 130.986 27.0384V32.9333H18.9834V27.0384C18.9834 25.7361 20.0391 24.6804 21.3414 24.6804Z" stroke="#BB2649" stroke-width="1.17898"/>
<path d="M76.7531 70.0711C76.7531 70.3963 77.017 70.6609 77.3422 70.6609C77.6681 70.6609 77.932 70.3963 77.932 70.0711H76.7531ZM78.5217 77.145C78.1958 77.145 77.932 77.4088 77.932 77.7347C77.932 78.06 78.1958 78.3238 78.5217 78.3238V77.145ZM78.5217 79.5027C78.1958 79.5027 77.932 79.7666 77.932 80.0925C77.932 80.4177 78.1958 80.6815 78.5217 80.6815V79.5027ZM27.8254 70.0711C27.4999 70.0711 27.2359 70.335 27.2359 70.6609C27.2359 70.9861 27.4999 71.25 27.8254 71.25V70.0711ZM27.8254 73.6077C27.4999 73.6077 27.2359 73.8722 27.2359 74.1975C27.2359 74.5234 27.4999 74.7872 27.8254 74.7872V73.6077ZM27.8254 60.6392C27.4999 60.6392 27.2359 60.9032 27.2359 61.2287C27.2359 61.5543 27.4999 61.8182 27.8254 61.8182V60.6392ZM57.2998 61.8182C57.6254 61.8182 57.8893 61.5543 57.8893 61.2287C57.8893 60.9032 57.6254 60.6392 57.2998 60.6392V61.8182ZM27.8254 77.145C27.4999 77.145 27.2359 77.4088 27.2359 77.7347C27.2359 78.06 27.4999 78.3238 27.8254 78.3238V77.145ZM27.8254 80.6815C27.4999 80.6815 27.2359 80.9461 27.2359 81.2713C27.2359 81.5972 27.4999 81.8611 27.8254 81.8611V80.6815ZM46.689 72.4288C46.3634 72.4288 46.0996 72.6927 46.0996 73.0186C46.0996 73.3438 46.3634 73.6077 46.689 73.6077V72.4288ZM50.8154 73.6077C51.141 73.6077 51.4049 73.3438 51.4049 73.0186C51.4049 72.6927 51.141 72.4288 50.8154 72.4288V73.6077ZM46.689 74.1975C46.3634 74.1975 46.0996 74.4613 46.0996 74.7872C46.0996 75.1125 46.3634 75.3763 46.689 75.3763V74.1975ZM50.8154 75.3763C51.141 75.3763 51.4049 75.1125 51.4049 74.7872C51.4049 74.4613 51.141 74.1975 50.8154 74.1975V75.3763ZM46.689 75.9661C46.3634 75.9661 46.0996 76.23 46.0996 76.5552C46.0996 76.8811 46.3634 77.145 46.689 77.145V75.9661ZM50.8154 77.145C51.141 77.145 51.4049 76.8811 51.4049 76.5552C51.4049 76.23 51.141 75.9661 50.8154 75.9661V77.145ZM102.101 106.619C102.426 106.619 102.69 106.355 102.69 106.03C102.69 105.704 102.426 105.44 102.101 105.44V106.619ZM98.5638 110.157C98.8897 110.157 99.1536 109.893 99.1536 109.567C99.1536 109.242 98.8897 108.977 98.5638 108.977V110.157ZM95.0272 113.693C95.3524 113.693 95.6163 113.429 95.6163 113.104C95.6163 112.778 95.3524 112.514 95.0272 112.514V113.693ZM100.922 117.23C101.247 117.23 101.511 116.967 101.511 116.641C101.511 116.315 101.247 116.051 100.922 116.051V117.23ZM23.5263 27.2111C23.2961 26.9809 22.9229 26.9809 22.6927 27.2111C22.4624 27.4412 22.4624 27.8145 22.6927 28.0447L23.5263 27.2111ZM26.2296 31.5816C26.4598 31.8119 26.833 31.8119 27.0633 31.5816C27.2935 31.3515 27.2935 30.9782 27.0633 30.748L26.2296 31.5816ZM22.6927 30.748C22.4624 30.9782 22.4624 31.3515 22.6927 31.5816C22.9229 31.8119 23.2961 31.8119 23.5263 31.5816L22.6927 30.748ZM27.0633 28.0447C27.2935 27.8145 27.2935 27.4412 27.0633 27.2111C26.833 26.9809 26.4598 26.9809 26.2296 27.2111L27.0633 28.0447ZM30.1833 28.8068C29.8578 28.8068 29.5939 29.0708 29.5939 29.3963C29.5939 29.7219 29.8578 29.9858 30.1833 29.9858V28.8068ZM33.7203 29.9858C34.0458 29.9858 34.3098 29.7219 34.3098 29.3963C34.3098 29.0708 34.0458 28.8068 33.7203 28.8068V29.9858ZM74.9845 108.388V108.977C75.3104 108.977 75.5742 108.713 75.5742 108.388H74.9845ZM70.2683 92.4716C69.9431 92.4716 69.6792 92.7354 69.6792 93.0613C69.6792 93.3866 69.9431 93.6504 70.2683 93.6504V92.4716ZM49.047 108.388H48.4575C48.4575 108.713 48.7214 108.977 49.047 108.977V108.388ZM54.3524 93.6504C54.6779 93.6504 54.9419 93.3866 54.9419 93.0613C54.9419 92.7354 54.6779 92.4716 54.3524 92.4716V93.6504ZM114.48 77.145H109.175V78.3238H114.48V77.145ZM109.764 77.7347V70.0711H108.585V77.7347H109.764ZM77.932 70.0711C77.932 61.6064 84.7938 54.7444 93.2586 54.7444V53.5654C84.1426 53.5654 76.7531 60.9553 76.7531 70.0711H77.932ZM109.764 70.0711C109.764 60.9553 102.374 53.5654 93.2586 53.5654V54.7444C101.723 54.7444 108.585 61.6064 108.585 70.0711H109.764ZM116.249 78.9136C116.249 77.9365 115.457 77.145 114.48 77.145V78.3238C114.806 78.3238 115.07 78.5877 115.07 78.9136H116.249ZM114.48 80.6815C115.457 80.6815 116.249 79.89 116.249 78.9136H115.07C115.07 79.2388 114.806 79.5027 114.48 79.5027V80.6815ZM78.5217 78.3238H109.175V77.145H78.5217V78.3238ZM78.5217 80.6815H114.48V79.5027H78.5217V80.6815ZM18.3936 33.5228V104.262H19.5726V33.5228H18.3936ZM131.575 104.262V33.5228H130.397V104.262H131.575ZM128.628 107.209C130.256 107.209 131.575 105.889 131.575 104.262H130.397C130.397 105.238 129.605 106.03 128.628 106.03V107.209ZM21.3411 106.03C20.3644 106.03 19.5726 105.238 19.5726 104.262H18.3936C18.3936 105.889 19.7132 107.209 21.3411 107.209V106.03ZM27.8254 61.8182H57.2998V60.6392H27.8254V61.8182ZM54.9419 41.7756H30.1833V42.9546H54.9419V41.7756ZM30.1833 41.7756C28.5555 41.7756 27.2359 43.0952 27.2359 44.7231H28.4149C28.4149 43.7464 29.2066 42.9546 30.1833 42.9546V41.7756ZM27.2359 44.7231V51.7969H28.4149V44.7231H27.2359ZM27.2359 51.7969C27.2359 53.4248 28.5555 54.7444 30.1833 54.7444V53.5654C29.2066 53.5654 28.4149 52.7736 28.4149 51.7969H27.2359ZM30.1833 54.7444H54.9419V53.5654H30.1833V54.7444ZM54.9419 54.7444C56.5697 54.7444 57.8893 53.4248 57.8893 51.7969H56.7104C56.7104 52.7736 55.9186 53.5654 54.9419 53.5654V54.7444ZM57.8893 51.7969V44.7231H56.7104V51.7969H57.8893ZM57.8893 44.7231C57.8893 43.0952 56.5697 41.7756 54.9419 41.7756V42.9546C55.9186 42.9546 56.7104 43.7464 56.7104 44.7231H57.8893ZM30.1833 88.935C28.5555 88.935 27.2359 90.2543 27.2359 91.8825H28.4149C28.4149 90.9054 29.2066 90.1138 30.1833 90.1138V88.935ZM27.2359 91.8825V92.4716H28.4149V91.8825H27.2359ZM27.2359 92.4716C27.2359 94.0997 28.5555 95.4191 30.1833 95.4191V94.2402C29.2066 94.2402 28.4149 93.4486 28.4149 92.4716H27.2359ZM46.689 70.6609H76.1633V69.4813H46.689V70.6609ZM76.1633 70.6609C77.1404 70.6609 77.932 71.4525 77.932 72.4288H79.1108C79.1108 70.8013 77.7915 69.4813 76.1633 69.4813V70.6609ZM77.932 134.915C77.932 135.892 77.1404 136.683 76.1633 136.683V137.862C77.7915 137.862 79.1108 136.543 79.1108 134.915H77.932ZM76.1633 136.683H46.689V137.862H76.1633V136.683ZM46.689 136.683C45.7124 136.683 44.9206 135.892 44.9206 134.915H43.7416C43.7416 136.543 45.0612 137.862 46.689 137.862V136.683ZM46.689 73.6077H50.8154V72.4288H46.689V73.6077ZM46.689 75.3763H50.8154V74.1975H46.689V75.3763ZM46.689 77.145H50.8154V75.9661H46.689V77.145ZM122.144 98.3666C123.12 98.3666 123.912 99.1581 123.912 100.135H125.091C125.091 98.507 123.771 97.1877 122.144 97.1877V98.3666ZM123.912 122.536C123.912 123.512 123.12 124.304 122.144 124.304V125.483C123.771 125.483 125.091 124.163 125.091 122.536H123.912ZM30.1833 95.4191H44.3311V94.2402H30.1833V95.4191ZM44.9206 94.8293V89.5241H43.7416V94.8293H44.9206ZM44.3311 88.935H30.1833V90.1138H44.3311V88.935ZM44.9206 89.5241V81.2713H43.7416V89.5241H44.9206ZM27.8254 81.8611H44.3311V80.6815H27.8254V81.8611ZM44.9206 81.2713V77.7347H43.7416V81.2713H44.9206ZM27.8254 78.3238H44.3311V77.145H27.8254V78.3238ZM44.9206 77.7347V74.1975H43.7416V77.7347H44.9206ZM44.9206 74.1975V72.4288H43.7416V74.1975H44.9206ZM27.8254 74.7872H44.3311V73.6077H27.8254V74.7872ZM44.9206 72.4288C44.9206 71.9011 45.1513 71.4272 45.5194 71.1027L44.7393 70.2184C44.1284 70.7577 43.7416 71.5486 43.7416 72.4288H44.9206ZM45.5194 71.1027C45.8316 70.8272 46.2401 70.6609 46.689 70.6609V69.4813C45.9419 69.4813 45.2585 69.7602 44.7393 70.2184L45.5194 71.1027ZM27.8254 71.25H45.1294V70.0711H27.8254V71.25ZM44.9206 134.915V106.619H43.7416V134.915H44.9206ZM44.9206 106.619V94.8293H43.7416V106.619H44.9206ZM21.3411 107.209H44.3311V106.03H21.3411V107.209ZM122.144 124.304H78.5217V125.483H122.144V124.304ZM77.932 124.893V134.915H79.1108V124.893H77.932ZM77.932 116.641V124.893H79.1108V116.641H77.932ZM78.5217 117.23H100.922V116.051H78.5217V117.23ZM77.932 113.104V116.641H79.1108V113.104H77.932ZM78.5217 113.693H95.0272V112.514H78.5217V113.693ZM77.932 109.567V113.104H79.1108V109.567H77.932ZM78.5217 110.157H98.5638V108.977H78.5217V110.157ZM78.5217 106.619H102.101V105.44H78.5217V106.619ZM77.932 72.4288V97.7768H79.1108V72.4288H77.932ZM77.932 97.7768V106.03H79.1108V97.7768H77.932ZM78.5217 98.3666H122.144V97.1877H78.5217V98.3666ZM124.502 107.209H128.628V106.03H124.502V107.209ZM123.912 100.135V106.619H125.091V100.135H123.912ZM123.912 106.619V122.536H125.091V106.619H123.912ZM22.6927 28.0447L24.4611 29.8132L25.2948 28.9796L23.5263 27.2111L22.6927 28.0447ZM24.4611 29.8132L26.2296 31.5816L27.0633 30.748L25.2948 28.9796L24.4611 29.8132ZM23.5263 31.5816L25.2948 29.8132L24.4611 28.9796L22.6927 30.748L23.5263 31.5816ZM25.2948 29.8132L27.0633 28.0447L26.2296 27.2111L24.4611 28.9796L25.2948 29.8132ZM30.1833 29.9858H33.7203V28.8068H30.1833V29.9858ZM40.2046 29.3963C40.2046 30.373 39.4129 31.1648 38.4362 31.1648V32.3438C40.0641 32.3438 41.3836 31.0242 41.3836 29.3963H40.2046ZM38.4362 31.1648C37.4595 31.1648 36.6677 30.373 36.6677 29.3963H35.4888C35.4888 31.0242 36.8084 32.3438 38.4362 32.3438V31.1648ZM36.6677 29.3963C36.6677 28.4196 37.4595 27.6279 38.4362 27.6279V26.4489C36.8084 26.4489 35.4888 27.7685 35.4888 29.3963H36.6677ZM38.4362 27.6279C39.4129 27.6279 40.2046 28.4196 40.2046 29.3963H41.3836C41.3836 27.7685 40.0641 26.4489 38.4362 26.4489V27.6279ZM63.7842 108.388C63.7842 107.275 64.2202 106.58 64.8989 106.136C65.6157 105.667 66.6625 105.44 67.9106 105.44V104.262C66.5543 104.262 65.243 104.502 64.2531 105.149C63.2249 105.822 62.6052 106.897 62.6052 108.388H63.7842ZM67.9106 105.44C69.159 105.44 70.2056 105.667 70.9222 106.136C71.6013 106.58 72.037 107.275 72.037 108.388H73.2158C73.2158 106.897 72.5961 105.822 71.5679 105.149C70.5786 104.502 69.2667 104.262 67.9106 104.262V105.44ZM72.037 108.388C72.037 109.501 71.6013 110.195 70.9222 110.64C70.2056 111.109 69.159 111.335 67.9106 111.335V112.514C69.2667 112.514 70.5786 112.274 71.5679 111.626C72.5961 110.953 73.2158 109.878 73.2158 108.388H72.037ZM67.9106 111.335C66.6625 111.335 65.6157 111.109 64.8989 110.64C64.2202 110.195 63.7842 109.501 63.7842 108.388H62.6052C62.6052 109.878 63.2249 110.953 64.2531 111.626C65.243 112.274 66.5543 112.514 67.9106 112.514V111.335ZM51.9944 108.388C51.9944 107.275 52.4304 106.58 53.1091 106.136C53.826 105.667 54.8727 105.44 56.1209 105.44V104.262C54.7645 104.262 53.4533 104.502 52.4633 105.149C51.4351 105.822 50.8154 106.897 50.8154 108.388H51.9944ZM56.1209 105.44C57.369 105.44 58.4157 105.667 59.1327 106.136C59.8113 106.58 60.2473 107.275 60.2473 108.388H61.4262C61.4262 106.897 60.8065 105.822 59.7784 105.149C58.7885 104.502 57.4772 104.262 56.1209 104.262V105.44ZM60.2473 108.388C60.2473 109.501 59.8113 110.195 59.1327 110.64C58.4157 111.109 57.369 111.335 56.1209 111.335V112.514C57.4772 112.514 58.7885 112.274 59.7784 111.626C60.8065 110.953 61.4262 109.878 61.4262 108.388H60.2473ZM56.1209 111.335C54.8727 111.335 53.826 111.109 53.1091 110.64C52.4304 110.195 51.9944 109.501 51.9944 108.388H50.8154C50.8154 109.878 51.4351 110.953 52.4633 111.626C53.4533 112.274 54.7645 112.514 56.1209 112.514V111.335ZM63.1947 107.798H60.8367V108.977H63.1947V107.798ZM72.6267 108.977H74.9845V107.798H72.6267V108.977ZM75.5742 108.388V96.5979H74.3947V108.388H75.5742ZM71.4479 92.4716H70.2683V93.6504H71.4479V92.4716ZM51.4049 107.798H49.047V108.977H51.4049V107.798ZM49.6365 108.388V96.5979H48.4575V108.388H49.6365ZM52.5839 93.6504H54.3524V92.4716H52.5839V93.6504ZM49.6365 96.5979C49.6365 94.9704 50.9561 93.6504 52.5839 93.6504V92.4716C50.305 92.4716 48.4575 94.3193 48.4575 96.5979H49.6365ZM75.5742 96.5979C75.5742 94.3193 73.7265 92.4716 71.4479 92.4716V93.6504C73.0754 93.6504 74.3947 94.9704 74.3947 96.5979H75.5742ZM73.8056 126.662H49.047V127.841H73.8056V126.662ZM49.047 126.662C47.4192 126.662 46.0996 127.981 46.0996 129.61H47.2785C47.2785 128.632 48.0703 127.841 49.047 127.841V126.662ZM46.0996 129.61V130.788H47.2785V129.61H46.0996ZM46.0996 130.788C46.0996 132.417 47.4192 133.736 49.047 133.736V132.557C48.0703 132.557 47.2785 131.765 47.2785 130.788H46.0996ZM49.047 133.736H73.8056V132.557H49.047V133.736ZM73.8056 133.736C75.4331 133.736 76.7531 132.417 76.7531 130.788H75.5742C75.5742 131.765 74.782 132.557 73.8056 132.557V133.736ZM76.7531 130.788V129.61H75.5742V130.788H76.7531ZM76.7531 129.61C76.7531 127.981 75.4331 126.662 73.8056 126.662V127.841C74.782 127.841 75.5742 128.632 75.5742 129.61H76.7531ZM77.932 106.03V109.567H79.1108V106.03H77.932Z" fill="#000577"/>
<mask id="path-14-inside-1_984_1469" fill="white">
<path fill-rule="evenodd" clip-rule="evenodd" d="M108.841 106.841C107.72 107.962 107.72 109.781 108.841 110.902L113.579 115.64L113.579 115.64L113.579 115.64L118.317 110.902C119.439 109.781 119.439 107.963 118.317 106.841C117.196 105.72 115.378 105.72 114.256 106.841L113.579 107.518L112.902 106.841C111.781 105.72 109.962 105.72 108.841 106.841Z"/>
</mask>
<path d="M108.841 110.902L108.134 111.609L108.134 111.609L108.841 110.902ZM108.841 106.841L108.134 106.134L108.134 106.134L108.841 106.841ZM113.579 115.64L112.872 116.347L113.58 117.055L114.287 116.346L113.579 115.64ZM113.579 115.64L114.286 114.933L113.578 114.225L112.871 114.933L113.579 115.64ZM113.579 115.64L112.872 116.347L113.579 117.054L114.287 116.347L113.579 115.64ZM118.317 110.902L119.024 111.609L119.024 111.609L118.317 110.902ZM118.317 106.841L119.024 106.134L119.024 106.134L118.317 106.841ZM114.256 106.841L113.549 106.134L113.549 106.134L114.256 106.841ZM113.579 107.518L112.872 108.225L113.579 108.932L114.286 108.225L113.579 107.518ZM112.902 106.841L113.609 106.134L113.609 106.134L112.902 106.841ZM109.548 110.195C108.817 109.464 108.817 108.279 109.548 107.548L108.134 106.134C106.622 107.646 106.622 110.097 108.134 111.609L109.548 110.195ZM114.286 114.933L109.548 110.195L108.134 111.609L112.872 116.347L114.286 114.933ZM112.871 114.933L112.871 114.934L114.287 116.346L114.287 116.346L112.871 114.933ZM114.287 114.933L114.286 114.933L112.872 116.347L112.872 116.347L114.287 114.933ZM117.61 110.195L112.872 114.933L114.287 116.347L119.024 111.609L117.61 110.195ZM117.61 107.548C118.341 108.279 118.341 109.464 117.61 110.195L119.024 111.609C120.536 110.097 120.536 107.646 119.024 106.134L117.61 107.548ZM114.963 107.548C115.694 106.817 116.879 106.817 117.61 107.548L119.024 106.134C117.512 104.622 115.061 104.622 113.549 106.134L114.963 107.548ZM114.286 108.225L114.963 107.548L113.549 106.134L112.872 106.811L114.286 108.225ZM112.195 107.548L112.872 108.225L114.286 106.811L113.609 106.134L112.195 107.548ZM109.548 107.548C110.279 106.817 111.464 106.817 112.195 107.548L113.609 106.134C112.097 104.622 109.646 104.622 108.134 106.134L109.548 107.548Z" fill="#000577" mask="url(#path-14-inside-1_984_1469)"/>
</svg>
