<svg width="100" height="100" viewBox="0 0 100 100" fill="none" xmlns="http://www.w3.org/2000/svg">
<g clip-path="url(#clip0_1052_1459)">
<path d="M50.0001 100C77.6142 100 100 77.6142 100 50C100 22.3858 77.6142 0 50.0001 0C22.3858 0 0 22.3858 0 50C0 77.6142 22.3858 100 50.0001 100Z" fill="#D2F6EE"/>
<path d="M78.5 21H88L91 19L95.5 17.5L97 20L93 29L90 30L86.5 31.5L84.5 41C85.6667 41.6667 88.9 43.9 92.5 47.5C96.1 51.1 95.3333 56.3333 94.5 58.5L90 68.5L86.5 67.5C87 66.1667 88.2 62.5 89 58.5C89.8 54.5 87.6667 52.8333 86.5 52.5L81.5 51C81.5 56.2 78.8333 62.5 77.5 65C80.7 64.6 81.5 66.5 81.5 67.5C86.3 69.1 83.5 71.5 81.5 72.5L68.5 80C68.6667 79.5 66.9 79.6 58.5 84C50.1 88.4 44.6666 89.1667 43 89C39.1666 88.8333 30.6 88.3 27 87.5C21 86.1667 14.5 95.8333 13.5 97C7.33334 97.3333 3.13943 88.2908 4.99995 85.5C12 75 30.6666 67.3333 37.5 65.5V62L39 61L40 58.5V53.5L39 45.5C38.6666 45.8333 38.4 45.2 40 40C41.6 34.8 59 33.5 67.5 33.5H70C70.3333 34.1667 71.3 35 72.5 33C74 30.5 76.5 27.5 77.5 26C78.3 24.8 78.5 22.1667 78.5 21Z" fill="white"/>
<path d="M57 57L60.5 51.5L66 54H72.5C73.3 56.4 72.1667 64 71.5 67.5L68.5 70L69 67.5C70 66.5 71.3 64.3 68.5 63.5C65.9064 62.759 63.6846 65.6788 62.7088 67.5703C62.7643 68.119 62.616 68.116 62.5 68C62.5614 67.8649 62.6312 67.7208 62.7088 67.5703C62.6846 67.3308 62.6215 66.9862 62.5 66.5C62.1 64.9 61 64.1667 60.5 64H50L52 62.5L57 57Z" fill="#D2F6EE"/>
<path d="M61 70L49 73V74.5H57.5L61 70Z" fill="#D2F6EE"/>
<path d="M44.5001 36C43.9453 35.7104 37.0054 38.6554 38.5001 45C39.3353 50.9999 39.8352 54.2905 39.8352 54.2905C39.8352 54.2905 40.5 58.5 35.5408 57.5C36.0407 66.5 19.0406 61.317 30.0408 52.317C26.5407 49.817 28.5642 43.8174 35.5408 42.817C33.9427 33.0068 39.0001 33.3999 44.5001 36Z" fill="#BB2649"/>
<path d="M9.62077 11.8087C11.5757 9.54135 11.8804 8.1274 12 4C12.1197 8.1274 12.4243 9.54135 14.3793 11.8087C14.7212 12.2051 14.7212 12.7949 14.3793 13.1913C12.4243 15.4586 12.1197 16.8726 12 21C11.8804 16.8726 11.5757 15.4586 9.62077 13.1913C9.27892 12.7949 9.27892 12.2051 9.62077 11.8087Z" fill="#BB2649"/>
<path d="M32.4255 11.8805C32.8829 11.1196 32.9651 10.4882 33 9C33.035 10.4882 33.1172 11.1196 33.5746 11.8805C33.8039 12.262 33.8039 12.738 33.5746 13.1195C33.1172 13.8804 33.035 14.5118 33 16C32.9651 14.5118 32.8829 13.8804 32.4255 13.1195C32.1961 12.738 32.1961 12.262 32.4255 11.8805Z" fill="#BB2649"/>
<path d="M44.5001 36C43.9453 35.7104 37.0054 38.6554 38.5001 45C39.3353 50.9999 39.8352 54.2905 39.8352 54.2905C39.8352 54.2905 40.5 58.5 35.5408 57.5C36.0407 66.5 19.0406 61.317 30.0408 52.317C26.5407 49.817 28.5642 43.8174 35.5408 42.817C33.9427 33.0068 39.0001 33.3999 44.5001 36Z" stroke="#BB2649" stroke-linecap="round" stroke-linejoin="round"/>
<path d="M9.62077 11.8087C11.5757 9.54135 11.8804 8.1274 12 4C12.1197 8.1274 12.4243 9.54135 14.3793 11.8087C14.7212 12.2051 14.7212 12.7949 14.3793 13.1913C12.4243 15.4586 12.1197 16.8726 12 21C11.8804 16.8726 11.5757 15.4586 9.62077 13.1913C9.27892 12.7949 9.27892 12.2051 9.62077 11.8087Z" stroke="#BB2649" stroke-linecap="round" stroke-linejoin="round"/>
<path d="M32.4255 11.8805C32.8829 11.1196 32.9651 10.4882 33 9C33.035 10.4882 33.1172 11.1196 33.5746 11.8805C33.8039 12.262 33.8039 12.738 33.5746 13.1195C33.1172 13.8804 33.035 14.5118 33 16C32.9651 14.5118 32.8829 13.8804 32.4255 13.1195C32.1961 12.738 32.1961 12.262 32.4255 11.8805Z" stroke="#BB2649" stroke-linecap="round" stroke-linejoin="round"/>
<path d="M21.5617 28.3269C22.7328 26.8306 22.9234 25.7995 23 23C23.0766 25.7995 23.2672 26.8306 24.4383 28.3269C24.7475 28.722 24.7475 29.278 24.4383 29.6731C23.2672 31.1694 23.0766 32.2005 23 35C22.9234 32.2005 22.7328 31.1694 21.5617 29.6731C21.2525 29.278 21.2525 28.722 21.5617 28.3269Z" fill="white"/>
<path d="M44.6207 21.8087C46.5757 19.5414 46.8804 18.1274 47 14C47.1196 18.1274 47.4243 19.5414 49.3793 21.8087C49.7211 22.2051 49.7211 22.7949 49.3793 23.1913C47.4243 25.4586 47.1196 26.8726 47 31C46.8804 26.8726 46.5757 25.4586 44.6207 23.1913C44.2789 22.7949 44.2789 22.2051 44.6207 21.8087Z" fill="white"/>
<path d="M61.3759 78.9092C58.1904 82.1331 55.0175 84.9619 44.5261 89.4482C45.7575 89.3838 47.032 89.2402 48.3539 88.9915C62.9789 86.2575 75.5326 74.2145 77.6293 68.8511C77.9611 68.0026 78.0311 67.3213 77.8061 66.8705C77.6344 66.5328 77.3165 66.3671 77.113 66.2652C76.9937 66.2054 76.8703 66.1569 76.7432 66.119C73.2795 65.086 67.0781 71.8974 67.0781 71.8974C65.4348 74.3522 63.3573 76.9081 61.3759 78.9092Z" fill="white"/>
<path d="M40.9896 78.5C38.9896 73 35.7302 62.0279 38.5302 60.8279C41.5278 59.5431 39 46 39 46C39 46 37.5303 39.3279 44.0303 36.3279C44.3347 36.1874 44.6691 36.0542 45.0303 35.928C50.8393 33.8981 63.2863 33.671 69.2489 33.8279C72.2248 28.4919 78.7793 19.6311 84.2409 20.5385C86.0724 20.8428 88.1204 21.3164 89.7476 20.4223C92.3158 19.011 95.5303 17.3279 95.5303 17.3279L95.9711 17.8941C97.1489 19.4069 97.0877 21.5426 95.8252 22.9854L95.0716 23.8468C94.6949 24.2772 94.4149 24.7835 94.2506 25.3314L93.6653 27.2824C93.2537 28.6542 92.1402 29.7013 90.7458 30.0277L89.7171 30.2686C88.2513 30.6117 87.1023 31.7488 86.7439 33.211L85.4896 38.3279C85.2917 38.9611 85.0482 39.9147 84.7811 41M46.0303 79.3279C44.5303 74.6612 42.4303 65.0279 46.0303 63.8279C48.7703 62.9145 51.6841 55.764 53.5813 49.8279M50.9896 78.5C49.1563 74.5 46.4303 66.2279 50.0303 63.8279C53.6303 61.4279 58.3229 55.1612 60.4896 51.8279M60.4896 51.8279C58.8896 50.6279 55.3976 49.6612 53.5813 49.8279M60.4896 51.8279C63.9896 53.8279 70.1777 54.5 72.511 54C73.3443 56.8333 73.1 63.5488 71.5 67.9488M55.0303 44.8279C54.672 46.2213 54.1767 47.9648 53.5813 49.8279M77.4471 65.5C79.0078 62.3181 80.3705 58.7918 81.0303 55.3279C81.359 53.6022 81.6408 52.3265 82.0065 51M44.5261 89.4482C55.0175 84.9619 58.1904 82.1331 61.3759 78.9092C63.3573 76.9081 65.4348 74.3522 67.0781 71.8974M44.5261 89.4482C33.9585 90.0011 26.5655 84.7215 19.652 89.9599C17.6271 91.4974 16.2842 93.4173 15.3819 95.1787C14.7595 96.3939 13.4929 97.2232 12.1859 96.8282C10.2386 96.2396 7.50672 94.9406 5.68261 92.0879C4.51562 90.2626 4.12373 88.4302 3.99995 87.1278C3.93125 86.4049 4.2059 85.7031 4.69217 85.1637C9.3426 80.0057 18.2872 71.5695 31.1862 67.3356C33.2933 66.6441 35.4097 66.0857 37.4896 65.637M44.5261 89.4482C45.7575 89.3838 47.032 89.2402 48.3539 88.9915C62.9789 86.2575 75.5326 74.2145 77.6293 68.8511M67.0781 71.8974C69.4216 68.3965 70.8821 65.1014 69.9216 63.9142C69.2985 63.1432 67.6135 63.2133 66.6025 63.5C64.7586 64.0225 63.8493 65.628 63.6204 66.0613C62.0425 69.2234 60.1514 72.0716 57.7917 74.3723M67.0781 71.8974C67.0781 71.8974 73.2795 65.086 76.7432 66.119M57.7917 74.3723C55.3967 76.7072 52.519 78.4782 48.996 79.4409C43.9957 80.6936 39.6098 78.2521 35.8383 75.1428C35.7082 75.0355 35.5712 74.938 35.4237 74.8563C34.4 74.2893 32.4173 73.3946 29.8318 73.4774C25.3682 73.6112 22.5641 76.542 21.9982 77.16M57.7917 74.3723L57.8788 74.3628M57.7917 74.3723C55.0941 74.6601 51.9602 74.602 49.4896 74.4048M77.6293 68.8511C77.9611 68.0026 78.0311 67.3213 77.8061 66.8705C77.6344 66.5328 77.3165 66.3671 77.113 66.2652C76.9937 66.2054 76.8703 66.1569 76.7432 66.119M77.6293 68.8511C77.8108 68.6812 79.9862 66.699 82.1617 67.4757C82.3079 67.5267 83.7576 68.0682 83.9293 69.1641C84.0692 70.0306 83.3571 70.9353 82.1617 71.8974C78.2767 75.0065 64.8541 82.2061 62.6859 83.3656M77.6293 68.8511L77.6218 68.8583M76.7432 66.119C77.6398 65.1298 79.0035 64.8453 80.0315 65.3731C81.1061 65.921 81.3477 67.1124 81.3795 67.2717M76.7432 66.119L76.7378 66.1249M49.9896 64.0272C55.5125 63.7528 59.6143 64.0942 60.7401 64.2553C62.9655 64.5739 62.8765 67.3037 62.0817 68.8201C61.3569 70.2026 59.7609 70.6423 54.3245 71.5024C52.715 71.7568 51.122 72.2006 48.9896 72.5M84.7811 41C84.2207 43.2774 83.556 46.1348 82.9896 47.8279C82.5837 49.0411 82.2729 50.034 82.0065 51M84.7811 41C89.1874 43.5783 97.4 50.4878 95 57.5C92.6 64.5122 90.6667 67.9684 90 68.8201L87 67.5C88 64 89.8 56.6 89 55C88.2 53.4 84.0044 51.6667 82.0065 51M23 23C22.9234 25.7995 22.7328 26.8306 21.5617 28.3269C21.2525 28.722 21.2525 29.278 21.5617 29.6731C22.7328 31.1694 22.9234 32.2005 23 35C23.0766 32.2005 23.2672 31.1694 24.4383 29.6731C24.7475 29.278 24.7475 28.722 24.4383 28.3269C23.2672 26.8306 23.0766 25.7995 23 23ZM47 14C46.8804 18.1274 46.5757 19.5414 44.6207 21.8087C44.2789 22.2051 44.2789 22.7949 44.6207 23.1913C46.5757 25.4586 46.8804 26.8726 47 31C47.1196 26.8726 47.4243 25.4586 49.3793 23.1913C49.7211 22.7949 49.7211 22.2051 49.3793 21.8087C47.4243 19.5414 47.1196 18.1274 47 14Z" stroke="#000577" stroke-miterlimit="10" stroke-linecap="round" stroke-linejoin="round"/>
<path d="M80.0302 21.5L82.5302 25C82.3635 25.6667 82.3302 27.4 83.5302 29C85.0302 31 85.0302 34.5 82.5302 35.5C83.0302 39 76.5302 42 75.5302 36C72.2098 37.4661 69.8003 36.065 69.2488 33.5C69.0298 32.4814 69.1038 31.2791 69.5302 30C67.113 27.7516 67.5302 21 74.5302 22.5C73.6735 17.4543 78.0302 16.5 80.0302 18C79.8635 17.3333 80.3302 16 83.5302 16C84.5744 16.3989 86.5214 16.7386 87.0302 18C89.1565 17.436 90.6683 18.1286 91.5 20.5C92.455 23.223 84.7996 23.7642 83.6481 22.6661C82.3609 22.3293 80.8709 21.8153 80.0302 21.5Z" fill="#BB2649"/>
<path d="M86.7629 23.0174C86.3295 23.2149 85.9933 23.3278 85.7916 23.3278C85.3661 23.3278 84.7183 23.2021 84 23.0174V23L79.5 21.5L83.5 26M88 24.5L89 25" stroke="#000577" stroke-miterlimit="10" stroke-linecap="round" stroke-linejoin="round"/>
</g>
<defs>
<clipPath id="clip0_1052_1459">
<rect width="100" height="100" fill="white"/>
</clipPath>
</defs>
</svg>
