<svg width="212" height="28" viewBox="0 0 212 28" fill="none" xmlns="http://www.w3.org/2000/svg">
<path d="M43.0434 8.73796V10.8648H38.6035V13.1624H41.9257V15.2271H38.6035V19.636H35.9491V8.73796H43.0434ZM47.0933 12.4172C47.4038 11.9411 47.7919 11.5686 48.2577 11.2995C48.7234 11.02 49.2409 10.8803 49.8101 10.8803V13.6902H49.0805C48.4181 13.6902 47.9213 13.8351 47.5901 14.1249C47.2589 14.4043 47.0933 14.9011 47.0933 15.6152V19.636H44.4387V10.9735H47.0933V12.4172ZM59.245 15.165C59.245 15.4134 59.2295 15.6721 59.1984 15.9412H53.1905C53.2319 16.4794 53.4027 16.8934 53.7028 17.1832C54.0133 17.4626 54.3911 17.6023 54.8361 17.6023C55.4985 17.6023 55.959 17.3229 56.2178 16.764H59.0432C58.8983 17.3332 58.6344 17.8455 58.2514 18.3009C57.8789 18.7563 57.408 19.1134 56.8387 19.3721C56.2695 19.6308 55.633 19.7602 54.9292 19.7602C54.0806 19.7602 53.3251 19.5791 52.6627 19.2169C52.0003 18.8546 51.4829 18.3372 51.1103 17.6644C50.7377 16.9917 50.5514 16.2051 50.5514 15.3047C50.5514 14.4043 50.7325 13.6178 51.0947 12.945C51.4673 12.2723 51.9848 11.7548 52.6472 11.3926C53.3095 11.0304 54.0702 10.8493 54.9292 10.8493C55.7676 10.8493 56.5127 11.0252 57.1647 11.3771C57.8168 11.729 58.3239 12.2309 58.6861 12.8829C59.0587 13.535 59.245 14.2957 59.245 15.165ZM56.5282 14.4664C56.5282 14.011 56.373 13.6488 56.0625 13.3797C55.752 13.1106 55.3639 12.9761 54.8982 12.9761C54.4532 12.9761 54.0754 13.1055 53.7649 13.3642C53.4648 13.6229 53.2785 13.9903 53.206 14.4664H56.5282ZM68.8112 15.165C68.8112 15.4134 68.7957 15.6721 68.7646 15.9412H62.7567C62.7981 16.4794 62.9689 16.8934 63.269 17.1832C63.5795 17.4626 63.9573 17.6023 64.4023 17.6023C65.0647 17.6023 65.5252 17.3229 65.784 16.764H68.6094C68.4645 17.3332 68.2006 17.8455 67.8177 18.3009C67.4451 18.7563 66.9742 19.1134 66.4049 19.3721C65.8357 19.6308 65.1992 19.7602 64.4955 19.7602C63.6468 19.7602 62.8913 19.5791 62.2289 19.2169C61.5665 18.8546 61.0491 18.3372 60.6765 17.6644C60.3039 16.9917 60.1176 16.2051 60.1176 15.3047C60.1176 14.4043 60.2987 13.6178 60.6609 12.945C61.0335 12.2723 61.551 11.7548 62.2134 11.3926C62.8758 11.0304 63.6364 10.8493 64.4955 10.8493C65.3338 10.8493 66.0789 11.0252 66.7309 11.3771C67.383 11.729 67.8901 12.2309 68.2523 12.8829C68.6249 13.535 68.8112 14.2957 68.8112 15.165ZM66.0945 14.4664C66.0945 14.011 65.9392 13.6488 65.6287 13.3797C65.3182 13.1106 64.9301 12.9761 64.4644 12.9761C64.0194 12.9761 63.6416 13.1055 63.3311 13.3642C63.031 13.6229 62.8447 13.9903 62.7723 14.4664H66.0945ZM80.5961 8.73796V10.8648H76.1561V13.1624H79.4783V15.2271H76.1561V19.636H73.5015V8.73796H80.5961ZM83.3264 10.073C82.8607 10.073 82.4778 9.9385 82.1776 9.66941C81.8878 9.38998 81.743 9.04844 81.743 8.64481C81.743 8.23083 81.8878 7.88929 82.1776 7.62021C82.4778 7.34077 82.8607 7.20105 83.3264 7.20105C83.7818 7.20105 84.1544 7.34077 84.4442 7.62021C84.7443 7.88929 84.8944 8.23083 84.8944 8.64481C84.8944 9.04844 84.7443 9.38998 84.4442 9.66941C84.1544 9.9385 83.7818 10.073 83.3264 10.073ZM84.646 10.9735V19.636H81.9913V10.9735H84.646ZM89.8609 10.8493C90.4715 10.8493 91.0045 10.9735 91.4599 11.2218C91.9256 11.4702 92.2827 11.7962 92.5311 12.1999V10.9735H95.1857V19.6205C95.1857 20.4174 95.0253 21.1367 94.7045 21.7784C94.394 22.4304 93.9127 22.9479 93.2607 23.3308C92.619 23.7137 91.8169 23.9052 90.8544 23.9052C89.5711 23.9052 88.531 23.5999 87.734 22.9893C86.9371 22.389 86.4817 21.5714 86.3679 20.5364H88.9915C89.0743 20.8676 89.2709 21.1264 89.5814 21.3126C89.8919 21.5093 90.2749 21.6076 90.7302 21.6076C91.2788 21.6076 91.7134 21.4472 92.0343 21.1264C92.3655 20.8159 92.5311 20.3139 92.5311 19.6205V18.3941C92.2723 18.7977 91.9153 19.1289 91.4599 19.3876C91.0045 19.636 90.4715 19.7602 89.8609 19.7602C89.1467 19.7602 88.4999 19.5791 87.9203 19.2169C87.3408 18.8443 86.8802 18.3216 86.5387 17.6489C86.2075 16.9658 86.0419 16.1793 86.0419 15.2892C86.0419 14.3992 86.2075 13.6178 86.5387 12.945C86.8802 12.2723 87.3408 11.7548 87.9203 11.3926C88.4999 11.0304 89.1467 10.8493 89.8609 10.8493ZM92.5311 15.3047C92.5311 14.6424 92.3448 14.1197 91.9722 13.7368C91.6099 13.3538 91.1649 13.1624 90.6371 13.1624C90.1093 13.1624 89.6591 13.3538 89.2865 13.7368C88.9242 14.1094 88.7431 14.6268 88.7431 15.2892C88.7431 15.9516 88.9242 16.4794 89.2865 16.8727C89.6591 17.2556 90.1093 17.4471 90.6371 17.4471C91.1649 17.4471 91.6099 17.2556 91.9722 16.8727C92.3448 16.4898 92.5311 15.9671 92.5311 15.3047ZM108.159 10.8803C109.236 10.8803 110.09 11.2063 110.721 11.8583C111.363 12.5104 111.684 13.4159 111.684 14.5751V19.636H109.044V14.9322C109.044 14.3733 108.894 13.9438 108.594 13.6436C108.304 13.3331 107.901 13.1779 107.383 13.1779C106.866 13.1779 106.457 13.3331 106.157 13.6436C105.867 13.9438 105.722 14.3733 105.722 14.9322V19.636H103.083V14.9322C103.083 14.3733 102.933 13.9438 102.633 13.6436C102.343 13.3331 101.939 13.1779 101.422 13.1779C100.904 13.1779 100.496 13.3331 100.196 13.6436C99.9057 13.9438 99.7609 14.3733 99.7609 14.9322V19.636H97.1062V10.9735H99.7609V12.0602C100.03 11.6979 100.382 11.4133 100.817 11.2063C101.251 10.989 101.743 10.8803 102.291 10.8803C102.943 10.8803 103.523 11.02 104.03 11.2995C104.548 11.5789 104.951 11.9774 105.241 12.4948C105.541 12.0188 105.95 11.6307 106.467 11.3305C106.985 11.0304 107.549 10.8803 108.159 10.8803ZM113.013 15.2892C113.013 14.3992 113.178 13.6178 113.51 12.945C113.851 12.2723 114.312 11.7548 114.891 11.3926C115.471 11.0304 116.118 10.8493 116.832 10.8493C117.442 10.8493 117.975 10.9735 118.431 11.2218C118.896 11.4702 119.254 11.7962 119.502 12.1999V10.9735H122.157V19.636H119.502V18.4096C119.243 18.8132 118.881 19.1392 118.415 19.3876C117.96 19.636 117.427 19.7602 116.816 19.7602C116.112 19.7602 115.471 19.5791 114.891 19.2169C114.312 18.8443 113.851 18.3216 113.51 17.6489C113.178 16.9658 113.013 16.1793 113.013 15.2892ZM119.502 15.3047C119.502 14.6424 119.316 14.1197 118.943 13.7368C118.581 13.3538 118.136 13.1624 117.608 13.1624C117.08 13.1624 116.63 13.3538 116.257 13.7368C115.895 14.1094 115.714 14.6268 115.714 15.2892C115.714 15.9516 115.895 16.4794 116.257 16.8727C116.63 17.2556 117.08 17.4471 117.608 17.4471C118.136 17.4471 118.581 17.2556 118.943 16.8727C119.316 16.4898 119.502 15.9671 119.502 15.3047ZM135.207 8.73796V10.8648H132.319V19.636H129.665V10.8648H126.777V8.73796H135.207ZM144.704 15.165C144.704 15.4134 144.689 15.6721 144.658 15.9412H138.65C138.691 16.4794 138.862 16.8934 139.162 17.1832C139.473 17.4626 139.85 17.6023 140.295 17.6023C140.958 17.6023 141.418 17.3229 141.677 16.764H144.503C144.358 17.3332 144.094 17.8455 143.711 18.3009C143.338 18.7563 142.867 19.1134 142.298 19.3721C141.729 19.6308 141.092 19.7602 140.389 19.7602C139.54 19.7602 138.784 19.5791 138.122 19.2169C137.46 18.8546 136.942 18.3372 136.57 17.6644C136.197 16.9917 136.011 16.2051 136.011 15.3047C136.011 14.4043 136.192 13.6178 136.554 12.945C136.927 12.2723 137.444 11.7548 138.107 11.3926C138.769 11.0304 139.53 10.8493 140.389 10.8493C141.227 10.8493 141.972 11.0252 142.624 11.3771C143.276 11.729 143.783 12.2309 144.145 12.8829C144.518 13.535 144.704 14.2957 144.704 15.165ZM141.988 14.4664C141.988 14.011 141.832 13.6488 141.522 13.3797C141.211 13.1106 140.823 12.9761 140.358 12.9761C139.913 12.9761 139.535 13.1055 139.224 13.3642C138.924 13.6229 138.738 13.9903 138.665 14.4664H141.988ZM157.158 10.8803C158.234 10.8803 159.088 11.2063 159.72 11.8583C160.361 12.5104 160.682 13.4159 160.682 14.5751V19.636H158.043V14.9322C158.043 14.3733 157.893 13.9438 157.593 13.6436C157.303 13.3331 156.899 13.1779 156.382 13.1779C155.864 13.1779 155.456 13.3331 155.155 13.6436C154.866 13.9438 154.721 14.3733 154.721 14.9322V19.636H152.082V14.9322C152.082 14.3733 151.932 13.9438 151.631 13.6436C151.342 13.3331 150.938 13.1779 150.421 13.1779C149.903 13.1779 149.494 13.3331 149.194 13.6436C148.904 13.9438 148.759 14.3733 148.759 14.9322V19.636H146.105V10.9735H148.759V12.0602C149.029 11.6979 149.38 11.4133 149.815 11.2063C150.25 10.989 150.741 10.8803 151.29 10.8803C151.942 10.8803 152.521 11.02 153.029 11.2995C153.546 11.5789 153.95 11.9774 154.24 12.4948C154.54 12.0188 154.948 11.6307 155.466 11.3305C155.983 11.0304 156.547 10.8803 157.158 10.8803ZM165.194 12.1999C165.453 11.7962 165.81 11.4702 166.265 11.2218C166.72 10.9735 167.253 10.8493 167.864 10.8493C168.578 10.8493 169.225 11.0304 169.805 11.3926C170.384 11.7548 170.84 12.2723 171.171 12.945C171.512 13.6178 171.683 14.3992 171.683 15.2892C171.683 16.1793 171.512 16.9658 171.171 17.6489C170.84 18.3216 170.384 18.8443 169.805 19.2169C169.225 19.5791 168.578 19.7602 167.864 19.7602C167.264 19.7602 166.731 19.636 166.265 19.3876C165.81 19.1392 165.453 18.8184 165.194 18.4251V23.7655H162.539V10.9735H165.194V12.1999ZM168.982 15.2892C168.982 14.6268 168.795 14.1094 168.423 13.7368C168.061 13.3538 167.61 13.1624 167.072 13.1624C166.544 13.1624 166.094 13.3538 165.722 13.7368C165.359 14.1197 165.178 14.6424 165.178 15.3047C165.178 15.9671 165.359 16.4898 165.722 16.8727C166.094 17.2556 166.544 17.4471 167.072 17.4471C167.6 17.4471 168.05 17.2556 168.423 16.8727C168.795 16.4794 168.982 15.9516 168.982 15.2892ZM175.73 8.14803V19.636H173.076V8.14803H175.73ZM177.126 15.2892C177.126 14.3992 177.292 13.6178 177.623 12.945C177.965 12.2723 178.425 11.7548 179.005 11.3926C179.584 11.0304 180.231 10.8493 180.945 10.8493C181.556 10.8493 182.089 10.9735 182.544 11.2218C183.01 11.4702 183.367 11.7962 183.615 12.1999V10.9735H186.27V19.636H183.615V18.4096C183.357 18.8132 182.994 19.1392 182.529 19.3876C182.073 19.636 181.54 19.7602 180.93 19.7602C180.226 19.7602 179.584 19.5791 179.005 19.2169C178.425 18.8443 177.965 18.3216 177.623 17.6489C177.292 16.9658 177.126 16.1793 177.126 15.2892ZM183.615 15.3047C183.615 14.6424 183.429 14.1197 183.057 13.7368C182.694 13.3538 182.249 13.1624 181.721 13.1624C181.194 13.1624 180.743 13.3538 180.371 13.7368C180.009 14.1094 179.827 14.6268 179.827 15.2892C179.827 15.9516 180.009 16.4794 180.371 16.8727C180.743 17.2556 181.194 17.4471 181.721 17.4471C182.249 17.4471 182.694 17.2556 183.057 16.8727C183.429 16.4898 183.615 15.9671 183.615 15.3047ZM193.019 17.385V19.636H191.668C190.705 19.636 189.955 19.4032 189.417 18.9374C188.879 18.4613 188.61 17.6903 188.61 16.6243V13.1779H187.554V10.9735H188.61V8.86215H191.264V10.9735H193.003V13.1779H191.264V16.6554C191.264 16.9141 191.326 17.1004 191.451 17.2142C191.575 17.3281 191.782 17.385 192.072 17.385H193.019ZM202.663 15.165C202.663 15.4134 202.648 15.6721 202.617 15.9412H196.609C196.65 16.4794 196.821 16.8934 197.121 17.1832C197.431 17.4626 197.809 17.6023 198.254 17.6023C198.917 17.6023 199.377 17.3229 199.636 16.764H202.461C202.316 17.3332 202.052 17.8455 201.67 18.3009C201.297 18.7563 200.826 19.1134 200.257 19.3721C199.688 19.6308 199.051 19.7602 198.347 19.7602C197.499 19.7602 196.743 19.5791 196.081 19.2169C195.418 18.8546 194.901 18.3372 194.528 17.6644C194.156 16.9917 193.969 16.2051 193.969 15.3047C193.969 14.4043 194.151 13.6178 194.513 12.945C194.885 12.2723 195.403 11.7548 196.065 11.3926C196.728 11.0304 197.488 10.8493 198.347 10.8493C199.186 10.8493 199.931 11.0252 200.583 11.3771C201.235 11.729 201.742 12.2309 202.104 12.8829C202.477 13.535 202.663 14.2957 202.663 15.165ZM199.946 14.4664C199.946 14.011 199.791 13.6488 199.481 13.3797C199.17 13.1106 198.782 12.9761 198.316 12.9761C197.871 12.9761 197.493 13.1055 197.183 13.3642C196.883 13.6229 196.697 13.9903 196.624 14.4664H199.946ZM207.588 19.7602C206.832 19.7602 206.159 19.6308 205.569 19.3721C204.979 19.1134 204.514 18.7615 204.172 18.3165C203.831 17.8611 203.639 17.3539 203.598 16.7951H206.221C206.252 17.0952 206.392 17.3384 206.641 17.5247C206.889 17.711 207.194 17.8041 207.556 17.8041C207.888 17.8041 208.141 17.7421 208.317 17.6179C208.503 17.4833 208.597 17.3125 208.597 17.1056C208.597 16.8572 208.467 16.6761 208.208 16.5622C207.95 16.438 207.531 16.3035 206.951 16.1586C206.33 16.0137 205.813 15.8636 205.399 15.7084C204.985 15.5428 204.628 15.2892 204.327 14.9477C204.027 14.5958 203.877 14.1249 203.877 13.535C203.877 13.0382 204.012 12.588 204.281 12.1844C204.56 11.7704 204.964 11.4444 205.492 11.2063C206.03 10.9683 206.666 10.8493 207.401 10.8493C208.488 10.8493 209.342 11.1183 209.963 11.6565C210.594 12.1947 210.956 12.9088 211.049 13.7989H208.597C208.555 13.4987 208.421 13.2607 208.193 13.0848C207.976 12.9088 207.686 12.8208 207.324 12.8208C207.013 12.8208 206.775 12.8829 206.609 13.0071C206.444 13.121 206.361 13.2814 206.361 13.4884C206.361 13.7368 206.49 13.9231 206.749 14.0473C207.018 14.1715 207.432 14.2957 207.991 14.4199C208.633 14.5854 209.155 14.751 209.559 14.9166C209.963 15.0719 210.315 15.3306 210.615 15.6928C210.925 16.0447 211.086 16.5208 211.096 17.1211C211.096 17.6282 210.951 18.0836 210.661 18.4872C210.382 18.8805 209.973 19.191 209.435 19.4187C208.907 19.6464 208.291 19.7602 207.588 19.7602Z" fill="#272727"/>
<rect width="28" height="28" rx="14" fill="#D3305D"/>
<path d="M9.52691 8.48477L11.1277 14.4589L9.45017 20.6445L19.9424 14.4982L9.52691 8.48477Z" fill="white" stroke="white" stroke-width="1.09335" stroke-linejoin="round"/>
<path d="M9.52688 21.2406L12.078 19.7828L10.5682 14.4983L8.98021 20.3295V21.0584L9.52688 21.2406Z" fill="#FFAEC2"/>
</svg>
